PathFileType	4	(X/Y/Z)	C:/Users/opensim2020/Desktop/walking_exp_matlab/subject02_walking04_straight_03.trc	
DataRate	CameraRate	NumFrames	NumMarkers	Units	OrigDataRate	OrigDataStartFrame	OrigNumFrames	
100.00	100.00	5	42	mm	100.00	2206	222	
Frame#	Time	LFHD			RFHD			LBHD			RBHD			C7			T10			CLAV			STRN			RBAK			LSHO			LUPA			LELB			LFRM			LWRA			LWRB			LFIN			RSHO			RUPA			RELB			RFRM			RWRA			RWRB			RFIN			LASI			RASI			LPSI			RPSI			LTHI			LKNE			LTIB			LANK			LHEE			LTOE			RTHI			RKNE			RTIB			RANK			RHEE			RTOE			*39			*40			*41			
		X1	Y1	Z1	X2	Y2	Z2	X3	Y3	Z3	X4	Y4	Z4	X5	Y5	Z5	X6	Y6	Z6	X7	Y7	Z7	X8	Y8	Z8	X9	Y9	Z9	X10	Y10	Z10	X11	Y11	Z11	X12	Y12	Z12	X13	Y13	Z13	X14	Y14	Z14	X15	Y15	Z15	X16	Y16	Z16	X17	Y17	Z17	X18	Y18	Z18	X19	Y19	Z19	X20	Y20	Z20	X21	Y21	Z21	X22	Y22	Z22	X23	Y23	Z23	X24	Y24	Z24	X25	Y25	Z25	X26	Y26	Z26	X27	Y27	Z27	X28	Y28	Z28	X29	Y29	Z29	X30	Y30	Z30	X31	Y31	Z31	X32	Y32	Z32	X33	Y33	Z33	X34	Y34	Z34	X35	Y35	Z35	X36	Y36	Z36	X37	Y37	Z37	X38	Y38	Z38	X39	Y39	Z39	X40	Y40	Z40	X41	Y41	Z41	X42	Y42	Z42	

1	0.000	-994.73981	-926.03033	1714.04553	-849.94989	-939.58716	1692.94507	-1015.45447	-1054.40491	1643.26794	-876.68524	-1083.08630	1621.02881	-939.47791	-1127.26794	1510.51563	-934.44067	-1200.00073	1236.29810	-953.52850	-994.18707	1428.51819	-938.88232	-954.82123	1255.91675	-870.38074	-1195.94043	1341.63135	-1120.91064	-1065.44165	1474.77649	-1202.84290	-1118.47461	1283.54810	-1221.62488	-1152.46729	1149.01245	-1248.41895	-1168.85339	1019.87311	-1246.60522	-1127.31213	885.70038	-1264.19690	-1179.60901	897.83856	-1277.22961	-1171.90405	832.03497	-756.54626	-1041.97510	1472.34705	-667.13245	-1037.91846	1280.68713	-652.98413	-985.02887	1139.73511	-657.66705	-915.53546	1038.58289	-703.41980	-834.21924	940.25696	-662.72070	-867.98096	917.22589	-675.79114	-809.76251	876.21295	-1064.43799	-960.29663	976.87720	-805.37518	-977.37750	951.04175	-993.82410	-1176.95642	1012.17188	-880.96185	-1188.29358	1009.35181	-1153.72021	-959.85950	680.51483	-1137.93481	-917.12756	484.32224	-1156.85059	-912.11658	291.98038	-1151.80310	-834.96002	78.91416	-1102.00610	-859.63361	39.76987	-1159.19153	-677.44391	77.39046	-764.15149	-1108.46240	652.17407	-810.82745	-1154.35669	447.26416	-808.72833	-1244.08142	280.61307	-850.12659	-1311.05432	97.88645	-905.96979	-1356.49890	47.92604	-839.19739	-1167.81238	29.44635	-911.57007	-1032.20264	1780.91223	-3356.98730	2845.84082	1033.77014			 
2	0.010	-994.37402	-915.70776	1712.98486	-852.76971	-932.50208	1692.38904	-1018.73157	-1046.60010	1642.37708	-880.17737	-1075.83472	1620.21863	-942.92432	-1119.20764	1509.48621	-937.84644	-1191.44885	1235.16162	-956.58801	-986.00580	1427.73010	-941.61548	-946.40259	1255.19702	-873.78510	-1187.65039	1340.37231	-1124.21069	-1057.23291	1473.75134	-1205.99023	-1109.52795	1282.16516	-1224.67004	-1143.36877	1147.79871	-1251.41492	-1159.59094	1018.40234	-1249.23059	-1117.86865	884.15491	-1267.13879	-1170.01563	896.21295	-1280.01306	-1162.29797	830.51367	-759.67767	-1033.86145	1471.34790	-670.25806	-1031.09839	1280.04248	-656.17609	-978.65979	1138.59009	-660.44556	-910.31647	1037.06116	-706.11884	-829.24384	938.34259	-665.39484	-863.20941	915.22046	-678.29291	-805.29370	873.74341	-1066.87915	-950.81567	976.23370	-807.72748	-969.09125	950.23193	-997.18378	-1167.80188	1011.17914	-884.50696	-1179.57129	1008.38129	-1155.95068	-950.31775	679.36908	-1139.25769	-908.51752	482.91910	-1157.77502	-904.90247	290.44077	-1151.72253	-829.62421	76.78790	-1101.94824	-854.69788	37.85823	-1159.42700	-672.31354	74.44572	-765.76385	-1102.50098	652.18494	-811.54510	-1149.14417	447.18085	-809.16034	-1240.92310	281.72354	-850.03473	-1310.11499	99.46130	-905.52283	-1356.28259	50.67551	-839.22729	-1167.61401	29.35616	-914.72736	-1025.17578	1780.15564	-3356.91309	2845.81641	1033.76917			 
3	0.020	-1000.46405	-910.71088	1712.97253	-855.79291	-925.33997	1691.88782	-1022.45190	-1039.30933	1641.57263	-883.60010	-1068.41296	1619.31287	-946.40778	-1111.15784	1508.51208	-941.28461	-1182.79785	1234.05798	-959.77814	-977.70386	1427.03088	-944.48010	-937.75348	1254.54614	-877.24078	-1180.14404	1339.83105	-1127.52869	-1048.61646	1472.46191	-1209.22290	-1100.49841	1280.83069	-1227.80212	-1134.08044	1146.12610	-1254.21326	-1149.88110	1016.74042	-1251.97876	-1108.10291	882.75934	-1269.86414	-1160.40515	894.79755	-1282.92578	-1152.43030	829.04797	-763.06995	-1026.23718	1470.49512	-673.41876	-1023.91431	1279.31189	-659.45905	-972.42706	1137.66406	-663.24884	-904.80066	1035.58240	-708.26483	-824.23218	935.86029	-667.91608	-858.70374	913.26556	-680.51599	-801.58893	871.04944	-1069.41455	-941.07092	975.65265	-810.23950	-960.56464	949.41205	-1000.73297	-1158.44543	1010.27521	-888.10590	-1170.71973	1007.55963	-1158.36816	-940.65149	678.24542	-1140.61389	-900.05548	481.44861	-1158.65674	-898.18011	288.75009	-1151.67285	-825.30890	74.61618	-1101.61292	-850.64789	35.74367	-1159.75476	-668.17755	70.95148	-767.44287	-1095.24878	651.98260	-812.16858	-1143.23340	447.29037	-809.60992	-1237.34888	282.88553	-849.67670	-1309.10229	101.58350	-905.27551	-1355.68420	53.22000	-839.01227	-1167.42883	29.25110	-918.08997	-1018.03247	1779.20325	-3357.28394	2845.86670	1033.77441			 
4	0.030	-1003.59381	-903.03906	1712.55811	-859.16040	-917.91467	1691.55139	-1025.71277	-1030.76343	1640.67871	-887.25464	-1060.73242	1618.45520	-950.12738	-1103.18481	1507.52795	-944.94159	-1173.97424	1232.90466	-963.08673	-969.31879	1426.38599	-947.50873	-928.90582	1254.04004	-880.97662	-1171.05493	1338.48499	-1131.04431	-1040.12512	1471.45557	-1212.53491	-1091.31519	1279.43494	-1231.08960	-1124.81934	1144.96716	-1257.43457	-1140.35791	1015.46869	-1254.60645	-1098.07666	881.12311	-1272.96960	-1150.23938	893.19354	-1285.80591	-1142.27808	827.68292	-766.44330	-1018.21985	1469.98389	-676.90503	-1015.82098	1278.57031	-662.87488	-965.76825	1136.74817	-666.32379	-898.70129	1033.96912	-711.04877	-819.74371	933.20441	-670.31024	-854.29065	911.37872	-682.83472	-797.52814	868.54688	-1072.07471	-931.08411	975.16498	-812.91907	-951.79120	948.73822	-1004.47278	-1148.80933	1009.37848	-891.95636	-1161.53113	1006.64948	-1160.78931	-930.80157	677.12738	-1142.06018	-891.84430	479.81641	-1159.43958	-891.96722	286.98837	-1151.34363	-821.69696	71.99727	-1101.20764	-847.54053	33.88355	-1160.10852	-664.93457	67.12731	-769.18445	-1088.47961	651.99640	-812.81470	-1137.38208	447.53479	-810.06946	-1233.33801	284.14441	-849.23370	-1308.04993	103.93134	-904.63916	-1355.13428	56.38696	-838.88959	-1167.26660	29.17734	-921.71301	-1010.84351	1778.56470	-3357.04712	2845.79102	1033.86194			 
5	0.040	-1003.99536	-892.89154	1711.85364	-862.51196	-910.64294	1691.22131	-1029.53564	-1023.14063	1640.09241	-891.04211	-1052.92615	1617.65308	-953.74255	-1095.15686	1506.65796	-948.64203	-1164.92944	1231.72461	-966.46088	-960.84454	1425.81555	-950.61212	-920.00262	1253.61804	-884.69489	-1162.60803	1337.44202	-1134.65857	-1031.50769	1470.61389	-1215.98364	-1082.23718	1278.35583	-1234.37549	-1115.26917	1143.68115	-1260.49854	-1130.31250	1013.99182	-1257.50671	-1087.80420	880.08844	-1275.83105	-1139.92383	891.78326	-1288.72925	-1131.81482	826.30188	-769.94696	-1010.33057	1469.45374	-680.43805	-1009.17413	1278.14136	-666.36768	-959.44257	1135.99243	-669.06195	-893.90198	1032.66992	-713.87323	-815.58154	930.90808	-672.70288	-850.14905	909.45459	-684.86316	-793.69318	865.90765	-1074.95520	-920.85492	974.79321	-815.75159	-942.77625	948.02026	-1008.41418	-1138.90479	1008.45660	-895.94611	-1152.13940	1005.77289	-1163.09058	-920.78784	675.96814	-1143.52979	-884.00256	478.11172	-1160.23621	-886.25037	285.06082	-1151.05420	-818.82550	69.52621	-1101.18469	-845.26184	32.44408	-1160.20667	-662.28943	62.78404	-771.05396	-1080.64636	651.88800	-813.45941	-1129.96497	447.34726	-810.46088	-1228.90100	285.58694	-848.70898	-1306.27966	106.71662	-904.03870	-1354.01721	59.59871	-838.60773	-1167.14197	29.32871	-925.39697	-1003.62231	1777.81372	-3360.21802	2845.07959	1033.78870			 
